<svg width="16" height="16" viewBox="0 0 16 16" fill="none" xmlns="http://www.w3.org/2000/svg">
    <path
        d="M7.99998 14.6666C7.07776 14.6666 6.21109 14.4915 5.39998 14.1413C4.58887 13.7911 3.88331 13.3162 3.28331 12.7166C2.68331 12.1166 2.20842 11.4111 1.85865 10.6C1.50887 9.78887 1.33376 8.9222 1.33331 7.99998C1.33331 7.07776 1.50842 6.21109 1.85865 5.39998C2.20887 4.58887 2.68376 3.88331 3.28331 3.28331C3.88331 2.68331 4.58887 2.20842 5.39998 1.85865C6.21109 1.50887 7.07776 1.33376 7.99998 1.33331C8.9222 1.33331 9.78887 1.50842 10.6 1.85865C11.4111 2.20887 12.1166 2.68376 12.7166 3.28331C13.3166 3.88331 13.7918 4.58887 14.142 5.39998C14.4922 6.21109 14.6671 7.07776 14.6666 7.99998C14.6666 8.9222 14.4915 9.78887 14.1413 10.6C13.7911 11.4111 13.3162 12.1166 12.7166 12.7166C12.1166 13.3166 11.4111 13.7918 10.6 14.142C9.78887 14.4922 8.9222 14.6671 7.99998 14.6666ZM7.99998 13.3333C8.59998 13.3333 9.17776 13.2362 9.73331 13.042C10.2889 12.8478 10.8 12.5671 11.2666 12.2L3.79998 4.73331C3.43331 5.19998 3.15265 5.71109 2.95798 6.26665C2.76331 6.8222 2.6662 7.39998 2.66665 7.99998C2.66665 9.48887 3.18331 10.75 4.21665 11.7833C5.24998 12.8166 6.51109 13.3333 7.99998 13.3333ZM12.2 11.2666C12.5666 10.8 12.8473 10.2889 13.042 9.73331C13.2366 9.17776 13.3338 8.59998 13.3333 7.99998C13.3333 6.51109 12.8166 5.24998 11.7833 4.21665C10.75 3.18331 9.48887 2.66665 7.99998 2.66665C7.39998 2.66665 6.8222 2.76376 6.26665 2.95798C5.71109 3.1522 5.19998 3.43287 4.73331 3.79998L12.2 11.2666Z"
        fill="white" />
</svg>