<svg width="16" height="18" viewBox="0 0 16 18" fill="none" xmlns="http://www.w3.org/2000/svg">
    <path
        d="M15 6.3049C15 11 8.51312 14.8004 8.23687 14.9573C8.16406 14.9994 8.08268 15.0214 8 15.0214C7.91732 15.0214 7.83594 14.9994 7.76312 14.9573C7.48688 14.8004 1 11 1 6.3049C1.00116 5.20237 1.40979 4.14535 2.13624 3.36574C2.86269 2.58613 3.84764 2.1476 4.875 2.14636C6.16563 2.14636 7.29562 2.74197 8 3.74874C8.70438 2.74197 9.83438 2.14636 11.125 2.14636C12.1524 2.1476 13.1373 2.58613 13.8638 3.36574C14.5902 4.14535 14.9988 5.20237 15 6.3049Z"
        fill="white" />
</svg>