<svg width="20" height="20" viewBox="0 0 20 20" fill="none" xmlns="http://www.w3.org/2000/svg">
    <path
        d="M18.2286 11.3715H11.3715V18.2286C11.3715 18.5923 11.227 18.9412 10.9698 19.1983C10.7126 19.4555 10.3638 19.6 10 19.6C9.6363 19.6 9.28747 19.4555 9.03028 19.1983C8.77309 18.9412 8.6286 18.5923 8.6286 18.2286V11.3715H1.77145C1.40773 11.3715 1.0589 11.227 0.801707 10.9698C0.544514 10.7126 0.400024 10.3638 0.400024 10C0.400024 9.6363 0.544514 9.28747 0.801707 9.03028C1.0589 8.77309 1.40773 8.6286 1.77145 8.6286H8.6286V1.77145C8.6286 1.40773 8.77309 1.0589 9.03028 0.801706C9.28747 0.544513 9.6363 0.400024 10 0.400024C10.3638 0.400024 10.7126 0.544513 10.9698 0.801706C11.227 1.0589 11.3715 1.40773 11.3715 1.77145V8.6286H18.2286C18.5923 8.6286 18.9412 8.77309 19.1983 9.03028C19.4555 9.28747 19.6 9.6363 19.6 10C19.6 10.3638 19.4555 10.7126 19.1983 10.9698C18.9412 11.227 18.5923 11.3715 18.2286 11.3715Z"
        fill="black" />
</svg>