<svg width="16" height="18" viewBox="0 0 16 18" fill="none" xmlns="http://www.w3.org/2000/svg">
    <path fill-rule="evenodd" clip-rule="evenodd"
        d="M7.99998 1.43089C4.31799 1.43089 1.33332 4.63395 1.33332 8.58536C1.33209 9.63957 1.54862 10.681 1.96732 11.6346L1.34732 14.8806C1.32524 14.9965 1.33029 15.1164 1.36201 15.2297C1.39373 15.343 1.45113 15.4461 1.52908 15.5298C1.60702 15.6134 1.70307 15.675 1.80864 15.709C1.91421 15.7431 2.02599 15.7485 2.13398 15.7248L5.15865 15.0594C6.02132 15.4959 6.98532 15.7391 7.99998 15.7391C11.682 15.7391 14.6667 12.5368 14.6667 8.58465C14.6667 4.63395 11.682 1.43018 7.99998 1.43018"
        fill="white" />
</svg>