<svg width="16" height="18" viewBox="0 0 16 18" fill="none" xmlns="http://www.w3.org/2000/svg">
    <path
        d="M10.5 8.58533C10.5 9.29689 10.2366 9.9793 9.76777 10.4824C9.29893 10.9856 8.66304 11.2683 8 11.2683C7.33696 11.2683 6.70107 10.9856 6.23223 10.4824C5.76339 9.9793 5.5 9.29689 5.5 8.58533C5.5 7.87378 5.76339 7.19136 6.23223 6.68822C6.70107 6.18507 7.33696 5.9024 8 5.9024C8.66304 5.9024 9.29893 6.18507 9.76777 6.68822C10.2366 7.19136 10.5 7.87378 10.5 8.58533Z"
        fill="white" />
    <path
        d="M0 8.58536C0 8.58536 3 2.68292 8 2.68292C13 2.68292 16 8.58536 16 8.58536C16 8.58536 13 14.4878 8 14.4878C3 14.4878 0 8.58536 0 8.58536ZM8 12.3415C8.92826 12.3415 9.8185 11.9457 10.4749 11.2413C11.1313 10.5369 11.5 9.58154 11.5 8.58536C11.5 7.58918 11.1313 6.6338 10.4749 5.9294C9.8185 5.22499 8.92826 4.82926 8 4.82926C7.07174 4.82926 6.1815 5.22499 5.52513 5.9294C4.86875 6.6338 4.5 7.58918 4.5 8.58536C4.5 9.58154 4.86875 10.5369 5.52513 11.2413C6.1815 11.9457 7.07174 12.3415 8 12.3415Z"
        fill="white" />
</svg>