<svg width="29" height="26" viewBox="0 0 29 26" fill="none" xmlns="http://www.w3.org/2000/svg">
    <path
        d="M6.34375 12.1875H24.4688C24.7091 12.1875 24.9396 12.2731 25.1096 12.4255C25.2795 12.5778 25.375 12.7845 25.375 13C25.375 13.2155 25.2795 13.4222 25.1096 13.5745C24.9396 13.7269 24.7091 13.8125 24.4688 13.8125H6.34375C6.1034 13.8125 5.87289 13.7269 5.70293 13.5745C5.53298 13.4222 5.4375 13.2155 5.4375 13C5.4375 12.7845 5.53298 12.5778 5.70293 12.4255C5.87289 12.2731 6.1034 12.1875 6.34375 12.1875Z"
        fill="white" />
    <path
        d="M6.71885 13L14.2353 19.7372C14.4055 19.8898 14.5011 20.0967 14.5011 20.3125C14.5011 20.5283 14.4055 20.7352 14.2353 20.8878C14.0651 21.0403 13.8343 21.126 13.5937 21.126C13.353 21.126 13.1222 21.0403 12.952 20.8878L4.79579 13.5752C4.71139 13.4998 4.64443 13.4101 4.59874 13.3114C4.55306 13.2127 4.52954 13.1069 4.52954 13C4.52954 12.8931 4.55306 12.7873 4.59874 12.6886C4.64443 12.5899 4.71139 12.5002 4.79579 12.4247L12.952 5.11225C13.1222 4.95968 13.353 4.87397 13.5937 4.87397C13.8343 4.87397 14.0651 4.95968 14.2353 5.11225C14.4055 5.26482 14.5011 5.47174 14.5011 5.6875C14.5011 5.90326 14.4055 6.11018 14.2353 6.26275L6.71885 13Z"
        fill="white" />
</svg>