<svg width="25" height="13" viewBox="0 0 25 13" fill="none" xmlns="http://www.w3.org/2000/svg">
    <path
        d="M1.13657 11.6483L1.25986 11.6429H23.7508C23.9803 11.643 24.1837 11.7093 24.321 11.8056C24.4568 11.9008 24.4948 11.998 24.4994 12.0564C24.5037 12.111 24.4844 12.1978 24.3766 12.2934C24.2664 12.3913 24.0864 12.4729 23.8634 12.4945L23.7401 12.5H1.24917C1.01968 12.4998 0.816348 12.4336 0.679017 12.3373C0.543217 12.242 0.505209 12.1448 0.500596 12.0865C0.496283 12.0319 0.515622 11.945 0.623359 11.8494C0.733586 11.7516 0.913617 11.6699 1.13657 11.6483ZM1.13657 6.07691L1.25988 6.07143L23.7508 6.06957C23.7508 6.06957 23.7509 6.06957 23.7509 6.06957C23.9803 6.06977 24.1837 6.13602 24.321 6.23231C24.4568 6.32754 24.4948 6.42475 24.4994 6.48312C24.5037 6.53769 24.4844 6.62455 24.3766 6.72016C24.2664 6.81798 24.0864 6.89964 23.8634 6.92124L23.7401 6.92672L1.24917 6.92857C1.24915 6.92857 1.24914 6.92857 1.24913 6.92857C1.01965 6.92837 0.816338 6.86213 0.679016 6.76583C0.543218 6.67061 0.505209 6.57339 0.500596 6.51502C0.496283 6.46046 0.515622 6.3736 0.623359 6.27799C0.733586 6.18016 0.913617 6.0985 1.13657 6.07691ZM1.13656 0.505479L1.25986 0.5H23.751C23.9804 0.500227 24.1837 0.566467 24.321 0.662738C24.4568 0.757964 24.4948 0.85518 24.4994 0.913546C24.5037 0.968117 24.4844 1.05498 24.3766 1.15059C24.2664 1.24841 24.0864 1.33007 23.8634 1.35166L23.7401 1.35714L1.24917 1.35714C1.24912 1.35714 1.24908 1.35714 1.24903 1.35714C1.01959 1.35693 0.81632 1.29068 0.679017 1.1944C0.543218 1.09918 0.505209 1.00196 0.500596 0.943596C0.496283 0.889029 0.515622 0.802168 0.623359 0.706557C0.733585 0.608736 0.913615 0.527075 1.13656 0.505479Z"
        fill="white" stroke="white" />
</svg>